<svg version="1.1" id="Layer_1" xmlns="http://www.w3.org/2000/svg" xmlns:xlink="http://www.w3.org/1999/xlink" x="0px" y="0px"
	 width="100%" viewBox="0 0 1024 1024" enable-background="new 0 0 1024 1024" xml:space="preserve">
<path fill="#000000" opacity="1.000000" stroke="none" 
	d="
M252.322174,767.885437 
	C237.101837,762.421326 223.470856,754.875122 210.763062,745.530701 
	C178.083755,721.500549 162.054108,688.019775 155.594284,649.022400 
	C154.120514,640.125244 153.469131,631.188477 153.681778,622.175293 
	C154.576447,584.251892 167.537506,550.954895 192.264740,522.282410 
	C202.448547,510.473663 214.289261,500.497314 227.749069,492.547363 
	C261.969208,472.335449 299.656677,466.044952 334.785553,471.333771 
	C354.870758,474.357666 374.402924,479.412872 392.673553,487.904388 
	C415.168335,498.359131 435.822906,512.112488 455.363892,527.502380 
	C460.611084,531.634888 466.957947,535.224915 471.339874,539.579956 
	C477.395386,545.598328 483.942535,551.156860 489.995422,557.193604 
	C498.132263,565.308838 506.638275,573.052612 514.862915,581.081665 
	C517.334167,583.494202 520.450989,585.069153 522.598877,587.965210 
	C524.284424,590.237915 526.351074,588.861938 528.073303,587.182739 
	C535.111145,580.320496 542.151184,573.458740 549.293396,566.705627 
	C565.112427,551.748413 578.652771,534.969116 589.076050,515.855225 
	C599.230835,497.233459 604.790161,477.061829 607.674683,456.124786 
	C610.270813,437.280701 611.148193,418.360565 609.959656,399.359558 
	C609.414856,390.649567 612.586914,384.250122 620.224243,379.291199 
	C650.714722,359.493896 679.685608,337.588654 707.945862,314.735626 
	C717.655457,306.883911 722.363953,307.080933 732.067261,315.165405 
	C752.173523,331.917236 773.573853,347.001984 794.136536,363.169250 
	C802.890259,370.051758 804.400452,375.268127 798.653809,384.984131 
	C787.890625,403.181732 777.462463,421.540283 768.697937,440.800659 
	C762.900757,453.540131 757.145203,466.341278 753.208679,479.770416 
	C750.652039,488.492035 745.228821,492.882507 736.875854,495.379822 
	C723.007568,499.526154 709.247375,504.063599 695.744934,509.336487 
	C656.366028,524.714355 621.760986,547.089355 592.698120,578.067749 
	C580.989868,590.547729 569.430603,603.161438 557.782654,615.694702 
	C552.967163,620.876099 553.065857,621.887573 559.225403,624.981689 
	C561.644958,626.197083 561.508423,628.801331 563.238159,630.431763 
	C589.557922,655.241577 615.835815,680.083374 647.275208,698.575195 
	C651.307312,700.946716 655.803955,702.322266 659.964417,704.295349 
	C665.446655,706.895508 670.518860,710.310974 676.433289,712.128479 
	C711.972778,723.049072 744.426453,717.566711 772.610352,692.924988 
	C785.763672,681.424805 792.720642,665.693909 796.445557,648.869446 
	C799.976013,632.922729 798.775085,616.944214 792.605103,601.756958 
	C781.842468,575.264587 762.228149,558.165161 735.159912,549.450867 
	C726.888062,546.787842 718.439880,545.194336 709.669373,545.158630 
	C705.995544,545.143677 700.221252,545.574768 699.528870,541.939575 
	C698.728516,537.737244 704.580688,537.095886 707.885315,535.856384 
	C738.429871,524.399231 768.802002,524.385864 797.581726,540.549377 
	C825.215393,556.069214 840.903931,581.054199 847.194946,611.655029 
	C861.674744,682.088257 813.681641,757.658813 734.808105,769.051636 
	C700.597168,773.993164 668.347534,766.877014 637.530273,751.716736 
	C610.887085,738.609863 588.576599,719.638550 566.470764,700.341187 
	C553.039124,688.616028 539.943359,676.514038 527.675171,663.565308 
	C524.811523,660.542786 522.846130,660.680908 519.924744,663.453430 
	C505.490051,677.152405 491.071472,690.877258 476.320007,704.231567 
	C448.971375,728.989746 419.215912,750.122375 384.673157,763.901245 
	C363.962952,772.162415 342.463348,776.317993 320.239777,777.475098 
	C307.706360,778.127686 295.312866,777.522949 282.940613,775.649231 
	C282.130920,775.526611 281.205139,775.355408 280.481628,775.616943 
	C276.982086,776.882263 274.259094,776.780273 271.130249,773.863220 
	C269.080872,771.952576 265.210510,772.033325 262.186981,771.118896 
	C259.000336,770.155151 255.850769,769.068726 252.322174,767.885437 
M576.649475,570.107544 
	C579.622742,571.599182 581.473328,570.755798 583.721619,568.120972 
	C590.625061,560.030518 596.474915,551.147827 603.507568,543.127625 
	C612.494141,532.879028 620.451782,521.730530 628.901428,511.008148 
	C637.652771,499.902863 646.732971,489.080109 654.607117,477.267914 
	C658.884277,470.851685 663.953979,464.895477 669.507568,459.339050 
	C674.230469,454.613678 678.165222,448.985565 681.607117,443.033813 
	C679.280212,441.178436 676.637756,441.744812 674.870789,439.721527 
	C672.950928,441.923065 671.223877,443.715515 669.708557,445.671936 
	C660.443298,457.634125 651.121521,469.554657 642.014526,481.636749 
	C622.974976,506.896240 604.019836,532.219727 585.126587,557.588806 
	C582.061157,561.705017 578.043457,565.133118 575.486694,570.415649 
	C574.414368,571.846680 573.304749,573.265991 573.898193,575.283936 
	C575.753845,576.225464 577.013489,575.686462 577.865295,573.997559 
	C577.212524,572.602295 576.602600,571.298584 576.649475,570.107544 
M380.221497,539.356506 
	C354.439819,526.851135 328.472260,517.036255 298.502411,520.666931 
	C286.088165,522.170776 275.068054,525.982971 263.960602,530.351196 
	C254.926758,533.903931 247.475525,540.378662 240.341156,546.925842 
	C218.443924,567.020935 206.530502,591.834106 205.286636,621.668884 
	C204.310028,645.093445 210.811264,666.530884 224.611725,685.085815 
	C232.037354,695.069641 240.909088,704.193481 251.700790,711.337402 
	C279.906403,730.008911 310.875519,730.085632 342.212646,724.791626 
	C365.968781,720.778381 386.818695,709.018494 406.779785,695.741760 
	C413.847382,691.040894 420.550415,685.989075 427.237640,680.786499 
	C437.451263,672.840271 447.691925,664.948975 457.236572,656.215454 
	C461.034424,652.740356 464.197083,648.545471 468.460205,645.580261 
	C474.789551,641.178040 480.205078,635.762207 485.520294,630.275757 
	C489.751678,625.908081 489.527588,623.899109 485.023163,619.988098 
	C478.091949,613.969910 470.532776,608.783264 464.537567,601.561401 
	C459.809357,595.865723 452.938934,591.995850 447.721985,586.831543 
	C438.010651,577.218323 426.502625,570.101440 416.017242,561.616150 
	C405.272583,552.921082 393.177521,546.069885 380.221497,539.356506 
M709.857849,428.194763 
	C715.076050,417.949921 708.413635,408.401947 701.779480,405.527985 
	C692.713684,401.600647 681.736633,405.417145 677.879456,413.801331 
	C674.035583,422.156525 677.317505,431.521362 685.592773,435.811310 
	C694.642639,440.502777 704.555481,437.638794 709.857849,428.194763 
z"/>
<path fill="#000000" opacity="1.000000" stroke="none" 
	d="
M723.227173,264.218811 
	C731.817261,251.379211 744.785583,242.621033 751.944519,228.948029 
	C755.480103,222.195267 764.493958,221.044342 771.799377,225.327728 
	C777.153015,228.466721 781.374695,233.053528 786.296448,236.751663 
	C790.419128,239.849396 794.435547,243.090714 798.452393,246.326431 
	C801.157471,248.505493 803.832642,250.617386 808.168213,248.451263 
	C807.328125,253.879395 810.931396,255.847015 814.038208,258.265991 
	C832.555969,272.684052 851.073730,287.102936 869.482117,301.659821 
	C872.413574,303.977905 876.712646,304.720245 877.446716,309.793884 
	C878.240662,315.281403 876.819641,319.557617 873.276611,323.503601 
	C864.938965,332.789398 856.591003,342.067261 848.363708,351.450439 
	C843.028076,357.535797 837.882446,363.788300 832.680359,369.989990 
	C828.739868,374.687500 822.526001,375.809418 816.938171,372.327179 
	C809.432251,367.649567 803.120056,361.390442 796.142029,356.003754 
	C793.764465,354.168457 791.551758,352.083435 788.540466,351.368439 
	C784.808533,350.482361 784.809631,346.361359 782.033264,344.321716 
	C770.906494,336.147552 760.188477,327.415405 749.351868,318.848328 
	C739.821411,311.313843 730.325867,303.735138 720.837646,296.147461 
	C719.411865,295.007263 718.007446,293.807098 716.768860,292.471649 
	C711.031616,286.286072 710.466553,280.549957 715.266418,273.617645 
	C717.526245,270.353851 720.389221,267.507721 723.227173,264.218811 
z"/>
</svg>